<?xml version="1.0" encoding="UTF-8"?>
<!DOCTYPE svg PUBLIC "-//W3C//DTD SVG 1.1//EN" "http://www.w3.org/Graphics/SVG/1.1/DTD/svg11.dtd">
<!-- Creator: CorelDRAW -->
<svg xmlns="http://www.w3.org/2000/svg" xml:space="preserve" width="512px" height="512px" version="1.1" style="shape-rendering:geometricPrecision; text-rendering:geometricPrecision; image-rendering:optimizeQuality; fill-rule:evenodd; clip-rule:evenodd"
viewBox="0 0 512 512"
 xmlns:xlink="http://www.w3.org/1999/xlink"
 xmlns:xodm="http://www.corel.com/coreldraw/odm/2003">
 <defs>
  <style type="text/css">
   <![CDATA[
    .str0 {stroke:#25343B;stroke-width:4.1;stroke-miterlimit:22.9256}
    .str1 {stroke:#25343B;stroke-width:1.02;stroke-miterlimit:22.9256}
    .str3 {stroke:#6EE7B7;stroke-width:1.02;stroke-miterlimit:22.9256}
    .str2 {stroke:#25343B;stroke-width:0.46;stroke-miterlimit:22.9256}
    .fil0 {fill:none}
    .fil1 {fill:#6EE7B7}
    .fil3 {fill:#6EE7B7}
    .fil2 {fill:#25343B;fill-rule:nonzero}
   ]]>
  </style>
 </defs>
 <g id="Camada_x0020_1">
  <metadata id="CorelCorpID_0Corel-Layer"/>
  <g id="_2486678200160">
   <path class="fil0 str0" d="M196.95 54.43c10.8,0 20.95,2.73 29.82,7.53 8.34,-11.79 22.08,-19.53 37.54,-19.53l0 0c25.28,0 45.96,20.68 45.96,45.95l0 301.87c0,25.27 -20.68,45.94 -45.96,45.94l0 0c-14.8,0 -28.01,-7.08 -36.43,-18.02 -18.03,16.48 -42.04,26.54 -68.41,26.54 -53.97,0 -98.09,-42.17 -101.2,-95.36 -18.11,-15.45 -29.59,-38.44 -29.59,-64.11 0,-32.36 18.25,-60.45 45.02,-74.56 -4.44,-8.89 -6.94,-18.91 -6.94,-29.51 0,-36.53 29.62,-66.14 66.15,-66.14 0.49,0 0.97,0.01 1.46,0.02 1.04,-33.66 28.66,-60.62 62.58,-60.62z"/>
   <path class="fil1" d="M365.28 53.16l0.01 0c21.85,0 39.73,17.87 39.73,39.73l0 13.95c29.96,2.77 53.43,27.97 53.43,58.66 0,12.17 -3.69,23.47 -10.01,32.86 29.51,8.44 51.11,35.62 51.11,67.84 0,21.09 -9.26,40.02 -23.93,52.95 5.19,8.77 8.17,19 8.17,29.94 0,32.53 -26.37,58.91 -58.91,58.91 -7.07,0 -13.86,-1.25 -20.14,-3.54 -2.34,19.67 -19.19,35.05 -39.45,35.05l-0.01 0c-21.85,0 -39.73,-17.88 -39.73,-39.73l0 -306.89c0,-21.86 17.88,-39.73 39.73,-39.73z"/>
   <path class="fil0 str0" d="M86.13 416.73c-1.37,1.84 -0.38,11.71 -5.75,19.87 -5.37,8.16 -17.12,14.62 -27.9,19.11 -10.79,4.48 -20.61,6.99 -27.82,8.37 -7.21,1.37 -11.8,1.62 -12.18,2.21 -0.38,0.58 3.45,1.52 9.74,2.28 6.28,0.76 15.02,1.35 25.27,0.76 10.26,-0.59 22.04,-2.36 31.72,-4.71 9.69,-2.35 17.29,-5.3 24.88,-9.71 7.6,-4.42 15.2,-10.3 17.29,-13.54 2.09,-3.23 -1.33,-3.82 -6.65,-5.74 -5.32,-1.91 -12.53,-5.15 -18.01,-9.85 -5.48,-4.71 -9.22,-10.89 -10.59,-9.05z"/>
   <line class="fil0 str1" x1="280.8" y1="224.76" x2="310.3" y2= "224.76" />
   <line class="fil0 str1" x1="261.79" y1="207" x2="242.9" y2= "188.59" />
   <line class="fil0 str1" x1="232.38" y1="135.05" x2="220.44" y2= "123.42" />
   <line class="fil0 str1" x1="306.9" y1="188.5" x2="280.69" y2= "163.17" />
   <line class="fil0 str1" x1="72.86" y1="276.58" x2="154.98" y2= "197.2" />
   <line class="fil0 str1" x1="276.31" y1="180.54" x2="261.34" y2= "165.81" />
   <line class="fil0 str1" x1="195.41" y1="123.43" x2="177.94" y2= "140.63" />
   <line class="fil0 str1" x1="240.68" y1="84.64" x2="223.2" y2= "101.84" />
   <line class="fil0 str1" x1="195.07" y1="175.48" x2="306.33" y2= "284.98" />
   <line class="fil0 str1" x1="205.06" y1="211.35" x2="307.44" y2= "312.1" />
   <line class="fil0 str1" x1="246.14" y1="291.14" x2="269.83" y2= "314.45" />
   <line class="fil0 str1" x1="178.03" y1="216.36" x2="207.91" y2= "245.76" />
   <line class="fil0 str1" x1="245.96" y1="387.45" x2="269.49" y2= "364.3" />
   <line class="fil0 str1" x1="160.64" y1="374.31" x2="196.93" y2= "338.6" />
   <line class="fil0 str1" x1="100.36" y1="192.42" x2="118.5" y2= "174.57" />
   <line class="fil0 str1" x1="182.83" y1="402.33" x2="212.53" y2= "373.11" />
   <line class="fil0 str1" x1="67.82" y1="307.6" x2="167.1" y2= "209.9" />
   <line class="fil0 str1" x1="61.96" y1="363.43" x2="155.63" y2= "271.25" />
   <line class="fil0 str1" x1="77.57" y1="407.35" x2="149.58" y2= "336.49" />
   <line class="fil0 str1" x1="64.08" y1="386.81" x2="157.75" y2= "294.63" />
   <line class="fil0 str1" x1="260.76" y1="206.57" x2="304.3" y2= "206.57" />
   <line class="fil0 str1" x1="204.26" y1="101.51" x2="224.01" y2= "101.51" />
   <line class="fil0 str1" x1="194.54" y1="123.72" x2="221.26" y2= "123.72" />
   <line class="fil0 str1" x1="240.34" y1="85.19" x2="240.34" y2= "49.65" />
   <line class="fil0 str1" x1="138.62" y1="171.44" x2="138.62" y2= "116.52" />
   <line class="fil0 str1" x1="118.15" y1="175.36" x2="118.15" y2= "120.01" />
   <line class="fil0 str1" x1="281.14" y1="163.96" x2="281.14" y2= "89.64" />
   <line class="fil0 str1" x1="269.49" y1="365.26" x2="269.49" y2= "313.56" />
   <line class="fil0 str1" x1="154.51" y1="198.15" x2="154.51" y2= "76.87" />
   <line class="fil0 str1" x1="261.44" y1="166.67" x2="261.44" y2= "43.8" />
   <line class="fil0 str1" x1="195.41" y1="176.3" x2="195.41" y2= "158.31" />
   <line class="fil0 str1" x1="166.54" y1="211" x2="166.54" y2= "68.36" />
   <line class="fil0 str1" x1="178.31" y1="217.17" x2="178.31" y2= "139.88" />
   <line class="fil0 str1" x1="195.85" y1="339.03" x2="241.32" y2= "339.03" />
   <line class="fil0 str1" x1="136.53" y1="402.03" x2="183.59" y2= "402.03" />
   <line class="fil0 str1" x1="156.83" y1="294.91" x2="182.35" y2= "294.91" />
   <path class="fil2 str2" d="M389.71 307.34l0 -108.04 9.42 0 0 108.04 -9.42 0zm3.56 -12.64c-6.28,0 -12.29,-0.9 -18.04,-2.7 -5.75,-1.81 -10.31,-4.12 -13.68,-6.96l5.17 -11.61c3.22,2.53 7.21,4.64 11.96,6.32 4.75,1.69 9.61,2.53 14.59,2.53 4.22,0 7.63,-0.46 10.23,-1.38 2.61,-0.91 4.52,-2.16 5.75,-3.73 1.22,-1.57 1.84,-3.35 1.84,-5.34 0,-2.46 -0.88,-4.43 -2.65,-5.92 -1.76,-1.5 -4.04,-2.69 -6.83,-3.57 -2.8,-0.88 -5.9,-1.7 -9.31,-2.47 -3.41,-0.76 -6.82,-1.66 -10.23,-2.7 -3.41,-1.03 -6.52,-2.37 -9.31,-4.02 -2.8,-1.65 -5.08,-3.85 -6.84,-6.61 -1.76,-2.76 -2.64,-6.28 -2.64,-10.57 0,-4.37 1.16,-8.37 3.5,-12.01 2.34,-3.64 5.9,-6.55 10.69,-8.74 4.79,-2.18 10.86,-3.27 18.22,-3.27 4.82,0 9.61,0.61 14.36,1.83 4.75,1.23 8.89,2.99 12.42,5.29l-4.72 11.61c-3.6,-2.15 -7.31,-3.74 -11.15,-4.77 -3.83,-1.03 -7.5,-1.55 -11.03,-1.55 -4.14,0 -7.49,0.5 -10.05,1.49 -2.57,1 -4.45,2.3 -5.64,3.91 -1.18,1.61 -1.78,3.45 -1.78,5.52 0,2.45 0.86,4.42 2.59,5.92 1.72,1.49 3.98,2.66 6.78,3.5 2.8,0.84 5.92,1.67 9.37,2.47 3.44,0.81 6.87,1.71 10.28,2.7 3.41,1 6.52,2.3 9.31,3.91 2.8,1.61 5.06,3.79 6.78,6.55 1.73,2.76 2.59,6.25 2.59,10.46 0,4.29 -1.17,8.26 -3.51,11.9 -2.33,3.64 -5.92,6.55 -10.74,8.73 -4.83,2.18 -10.92,3.28 -18.28,3.28z"/>
   <circle class="fil3 str3" cx="161.65" cy="266.99" r="8.23"/>
   <circle class="fil3 str3" cx="190.09" cy="293.74" r="8.23"/>
   <circle class="fil3 str3" cx="240.23" cy="286.33" r="8.23"/>
   <circle class="fil3 str3" cx="249.55" cy="339.03" r="8.23"/>
   <circle class="fil3 str3" cx="60.75" cy="312.19" r="8.23"/>
   <circle class="fil3 str3" cx="156.47" cy="331.08" r="8.23"/>
   <circle class="fil3 str3" cx="156.16" cy="378.19" r="8.23"/>
   <circle class="fil3 str3" cx="240.78" cy="391.93" r="8.23"/>
   <circle class="fil3 str3" cx="138.69" cy="179.13" r="8.23"/>
   <circle class="fil3 str3" cx="92.6" cy="196.58" r="8.23"/>
   <circle class="fil3 str3" cx="67.18" cy="283.12" r="8.23"/>
   <circle class="fil3 str3" cx="128.41" cy="400.3" r="8.23"/>
   <circle class="fil3 str3" cx="217.03" cy="367.37" r="8.23"/>
   <circle class="fil3 str3" cx="241.48" cy="182.17" r="8.23"/>
   <circle class="fil3 str3" cx="281.43" cy="185.41" r="8.23"/>
   <circle class="fil3 str3" cx="274.99" cy="224.36" r="8.23"/>
   <circle class="fil3 str3" cx="195.68" cy="151.74" r="8.23"/>
   <circle class="fil3 str3" cx="236.89" cy="140.32" r="8.23"/>
   <circle class="fil3 str3" cx="280.67" cy="82.07" r="8.23"/>
   <circle class="fil3 str3" cx="196.59" cy="101.74" r="8.23"/>
   <circle class="fil3 str3" cx="200" cy="206.11" r="8.23"/>
   <circle class="fil3 str3" cx="214.22" cy="251.68" r="8.23"/>
  </g>
 </g>
</svg>
