<?xml version="1.0" encoding="UTF-8"?>
<!DOCTYPE svg PUBLIC "-//W3C//DTD SVG 1.1//EN" "http://www.w3.org/Graphics/SVG/1.1/DTD/svg11.dtd">
<!-- Creator: CorelDRAW -->
<svg xmlns="http://www.w3.org/2000/svg" xml:space="preserve" width="512px" height="512px" version="1.1" style="shape-rendering:geometricPrecision; text-rendering:geometricPrecision; image-rendering:optimizeQuality; fill-rule:evenodd; clip-rule:evenodd"
viewBox="0 0 512 512"
 xmlns:xlink="http://www.w3.org/1999/xlink"
 xmlns:xodm="http://www.corel.com/coreldraw/odm/2003">
 <defs>
  <style type="text/css">
   <![CDATA[
    .str0 {stroke:#FEFEFE;stroke-width:4.1;stroke-miterlimit:22.9256}
    .str1 {stroke:#FEFEFE;stroke-width:1.02;stroke-miterlimit:22.9256}
    .str2 {stroke:#25343B;stroke-width:0.46;stroke-miterlimit:22.9256}
    .fil0 {fill:none}
    .fil1 {fill:#6EE7B7}
    .fil3 {fill:#6EE7B7}
    .fil2 {fill:#25343B;fill-rule:nonzero}
   ]]>
  </style>
 </defs>
 <g id="Camada_x0020_1">
  <metadata id="CorelCorpID_0Corel-Layer"/>
  <g id="_2448921326480">
   <path class="fil0 str0" d="M196.74 53.69c10.83,0 21.02,2.74 29.92,7.56 8.37,-11.84 22.16,-19.6 37.68,-19.6l0 0c25.38,0 46.13,20.75 46.13,46.12l0 302.97c0,25.36 -20.75,46.12 -46.13,46.12l0 0c-14.85,0 -28.12,-7.11 -36.57,-18.1 -18.09,16.55 -42.19,26.64 -68.65,26.64 -54.18,0 -98.45,-42.32 -101.57,-95.7 -18.18,-15.51 -29.71,-38.58 -29.71,-64.35 0,-32.48 18.32,-60.67 45.19,-74.84 -4.46,-8.92 -6.97,-18.97 -6.97,-29.62 0,-36.66 29.73,-66.37 66.4,-66.37 0.49,0 0.98,0.01 1.46,0.02 1.05,-33.79 28.77,-60.85 62.82,-60.85z"/>
   <path class="fil1" d="M365.69 52.41l0 0c21.93,0 39.87,17.95 39.87,39.88l0 14.01c30.08,2.77 53.63,28.07 53.63,58.87 0,12.21 -3.7,23.56 -10.05,32.98 29.62,8.47 51.3,35.75 51.3,68.09 0,21.17 -9.29,40.16 -24.01,53.14 5.21,8.81 8.2,19.08 8.2,30.05 0,32.66 -26.47,59.13 -59.13,59.13 -7.1,0 -13.91,-1.26 -20.22,-3.55 -2.34,19.74 -19.25,35.18 -39.59,35.18l0 0c-21.94,0 -39.88,-17.95 -39.88,-39.88l0 -308.02c0,-21.93 17.94,-39.88 39.88,-39.88z"/>
   <path class="fil0 str0" d="M85.5 417.32c-1.37,1.85 -0.37,11.75 -5.76,19.94 -5.4,8.19 -17.19,14.68 -28.01,19.18 -10.83,4.5 -20.69,7.02 -27.92,8.4 -7.24,1.38 -11.85,1.63 -12.23,2.22 -0.38,0.59 3.47,1.53 9.78,2.29 6.31,0.76 15.07,1.35 25.37,0.76 10.29,-0.59 22.11,-2.36 31.84,-4.72 9.72,-2.37 17.34,-5.32 24.97,-9.75 7.62,-4.43 15.25,-10.34 17.35,-13.59 2.09,-3.24 -1.34,-3.83 -6.68,-5.76 -5.33,-1.91 -12.58,-5.16 -18.08,-9.89 -5.5,-4.72 -9.25,-10.92 -10.63,-9.08z"/>
   <line class="fil0 str1" x1="280.89" y1="224.64" x2="310.5" y2= "224.64" />
   <line class="fil0 str1" x1="261.81" y1="206.82" x2="242.85" y2= "188.34" />
   <line class="fil0 str1" x1="232.29" y1="134.6" x2="220.31" y2= "122.93" />
   <line class="fil0 str1" x1="307.09" y1="188.25" x2="280.78" y2= "162.83" />
   <line class="fil0 str1" x1="72.18" y1="276.65" x2="154.61" y2= "196.99" />
   <line class="fil0 str1" x1="276.38" y1="180.26" x2="261.36" y2= "165.48" />
   <line class="fil0 str1" x1="195.19" y1="122.94" x2="177.65" y2= "140.21" />
   <line class="fil0 str1" x1="240.62" y1="84.01" x2="223.08" y2= "101.28" />
   <line class="fil0 str1" x1="194.84" y1="175.18" x2="306.52" y2= "285.08" />
   <line class="fil0 str1" x1="204.87" y1="211.18" x2="307.63" y2= "312.31" />
   <line class="fil0 str1" x1="246.11" y1="291.27" x2="269.88" y2= "314.66" />
   <line class="fil0 str1" x1="177.74" y1="216.21" x2="207.73" y2= "245.73" />
   <line class="fil0 str1" x1="245.92" y1="387.93" x2="269.54" y2= "364.69" />
   <line class="fil0 str1" x1="160.29" y1="374.74" x2="196.71" y2= "338.91" />
   <line class="fil0 str1" x1="99.79" y1="192.19" x2="118" y2= "174.27" />
   <line class="fil0 str1" x1="182.56" y1="402.87" x2="212.37" y2= "373.54" />
   <line class="fil0 str1" x1="67.13" y1="307.79" x2="166.77" y2= "209.73" />
   <line class="fil0 str1" x1="61.25" y1="363.83" x2="155.26" y2= "271.3" />
   <line class="fil0 str1" x1="76.92" y1="407.91" x2="149.19" y2= "336.79" />
   <line class="fil0 str1" x1="63.37" y1="387.29" x2="157.39" y2= "294.77" />
   <line class="fil0 str1" x1="260.78" y1="206.39" x2="304.48" y2= "206.39" />
   <line class="fil0 str1" x1="204.07" y1="100.94" x2="223.89" y2= "100.94" />
   <line class="fil0 str1" x1="194.32" y1="123.24" x2="221.13" y2= "123.24" />
   <line class="fil0 str1" x1="240.28" y1="84.57" x2="240.28" y2= "48.89" />
   <line class="fil0 str1" x1="137.43" y1="170.88" x2="137.43" y2= "115.77" />
   <line class="fil0 str1" x1="117.65" y1="175.06" x2="117.65" y2= "119.51" />
   <line class="fil0 str1" x1="281.23" y1="163.62" x2="281.23" y2= "89.03" />
   <line class="fil0 str1" x1="269.54" y1="365.66" x2="269.54" y2= "313.77" />
   <line class="fil0 str1" x1="154.13" y1="197.94" x2="154.13" y2= "76.21" />
   <line class="fil0 str1" x1="261.46" y1="166.34" x2="261.46" y2= "43.02" />
   <line class="fil0 str1" x1="195.19" y1="176" x2="195.19" y2= "157.95" />
   <line class="fil0 str1" x1="166.22" y1="210.84" x2="166.22" y2= "67.68" />
   <line class="fil0 str1" x1="178.02" y1="217.03" x2="178.02" y2= "139.45" />
   <line class="fil0 str1" x1="195.63" y1="339.34" x2="241.27" y2= "339.34" />
   <line class="fil0 str1" x1="136.1" y1="402.57" x2="183.32" y2= "402.57" />
   <line class="fil0 str1" x1="156.47" y1="295.05" x2="182.08" y2= "295.05" />
   <path class="fil2 str2" d="M390.2 307.53l0 -108.44 9.46 0 0 108.44 -9.46 0zm3.58 -12.69c-6.31,0 -12.34,-0.91 -18.11,-2.71 -5.77,-1.81 -10.35,-4.14 -13.73,-6.98l5.19 -11.65c3.23,2.54 7.23,4.65 12,6.34 4.77,1.69 9.65,2.54 14.65,2.54 4.23,0 7.65,-0.46 10.26,-1.38 2.62,-0.93 4.54,-2.18 5.77,-3.75 1.23,-1.58 1.85,-3.37 1.85,-5.37 0,-2.46 -0.89,-4.44 -2.66,-5.94 -1.76,-1.5 -4.05,-2.69 -6.86,-3.57 -2.81,-0.89 -5.92,-1.71 -9.34,-2.48 -3.42,-0.77 -6.85,-1.68 -10.27,-2.71 -3.42,-1.04 -6.54,-2.39 -9.34,-4.04 -2.81,-1.66 -5.1,-3.87 -6.87,-6.63 -1.77,-2.77 -2.65,-6.31 -2.65,-10.62 0,-4.38 1.17,-8.4 3.52,-12.05 2.34,-3.65 5.92,-6.58 10.73,-8.77 4.8,-2.19 10.9,-3.29 18.28,-3.29 4.85,0 9.65,0.62 14.42,1.85 4.77,1.23 8.92,3 12.46,5.31l-4.73 11.65c-3.62,-2.16 -7.35,-3.75 -11.19,-4.79 -3.85,-1.04 -7.54,-1.56 -11.07,-1.56 -4.16,0 -7.52,0.5 -10.1,1.5 -2.57,1 -4.46,2.31 -5.65,3.92 -1.19,1.62 -1.79,3.46 -1.79,5.54 0,2.46 0.87,4.44 2.6,5.94 1.73,1.5 4,2.67 6.8,3.52 2.81,0.85 5.94,1.67 9.4,2.48 3.46,0.81 6.91,1.71 10.33,2.71 3.42,1 6.53,2.31 9.34,3.92 2.81,1.62 5.08,3.81 6.81,6.58 1.73,2.77 2.59,6.27 2.59,10.5 0,4.3 -1.17,8.28 -3.52,11.93 -2.34,3.66 -5.94,6.58 -10.78,8.77 -4.85,2.19 -10.96,3.29 -18.34,3.29z"/>
   <circle class="fil3" cx="161.3" cy="267.03" r="8.26"/>
   <circle class="fil3" cx="189.85" cy="293.88" r="8.26"/>
   <circle class="fil3" cx="240.17" cy="286.44" r="8.26"/>
   <circle class="fil3" cx="249.53" cy="339.34" r="8.26"/>
   <circle class="fil3" cx="60.03" cy="312.4" r="8.26"/>
   <circle class="fil3" cx="156.11" cy="331.36" r="8.26"/>
   <circle class="fil3" cx="155.8" cy="378.64" r="8.26"/>
   <circle class="fil3" cx="240.72" cy="392.43" r="8.26"/>
   <circle class="fil3" cx="137.39" cy="178.85" r="8.26"/>
   <circle class="fil3" cx="92" cy="196.37" r="8.26"/>
   <circle class="fil3" cx="66.49" cy="283.22" r="8.26"/>
   <circle class="fil3" cx="127.94" cy="400.83" r="8.26"/>
   <circle class="fil3" cx="216.89" cy="367.78" r="8.26"/>
   <circle class="fil3" cx="241.43" cy="181.9" r="8.26"/>
   <circle class="fil3" cx="281.52" cy="185.15" r="8.26"/>
   <circle class="fil3" cx="275.06" cy="224.25" r="8.26"/>
   <circle class="fil3" cx="195.45" cy="151.36" r="8.26"/>
   <circle class="fil3" cx="236.82" cy="139.9" r="8.26"/>
   <circle class="fil3" cx="280.76" cy="81.44" r="8.26"/>
   <circle class="fil3" cx="196.37" cy="101.17" r="8.26"/>
   <circle class="fil3" cx="199.79" cy="205.93" r="8.26"/>
   <circle class="fil3" cx="214.06" cy="251.66" r="8.26"/>
  </g>
 </g>
</svg>
